<svg width="120" height="120" viewBox="0 0 120 120" fill="none" xmlns="http://www.w3.org/2000/svg">
<g clip-path="url(#clip0_655_2244)">
<g clip-path="url(#clip1_655_2244)">
<path fill-rule="evenodd" clip-rule="evenodd" d="M5.74011 65.9789H21.7457V70.3141H28.9162C34.4657 70.3141 39.6702 73.0783 44.1173 76.5989C48.5849 80.1358 52.4614 84.5744 55.3762 88.2179C57.3158 90.6424 56.4223 93.5553 54.5001 95.0848C52.5141 96.665 49.4394 96.8905 46.7418 94.6425L46.7258 94.6292L36.6104 85.9586C35.9814 85.4195 35.9086 84.4725 36.4477 83.8435C36.9868 83.2146 37.9338 83.1417 38.5628 83.6808L48.6699 92.3441C50.3045 93.7016 51.7939 93.4043 52.6322 92.7372C53.5356 92.0184 53.7259 90.9573 53.0336 90.092C50.1682 86.5102 46.458 82.2783 42.2552 78.9511C38.0319 75.6076 33.4821 73.3141 28.9162 73.3141H21.7457V86.9324H24.581C26.9271 86.9324 29.0791 88.1172 31.349 90.1034C33.6222 92.0924 36.2225 95.0738 39.4701 99.0431C39.956 99.637 40.5163 100.243 41.4367 100.825C42.3693 101.415 43.7374 102.022 45.8661 102.504C50.1564 103.476 57.3803 103.913 69.9726 102.834C71.2116 102.727 72.394 101.359 72.394 99.8536C72.394 99.1954 72.154 98.5879 71.5836 98.1165C70.9874 97.6237 69.8778 97.1578 67.9331 97.1578H60.7077C59.8793 97.1578 59.2077 96.4862 59.2077 95.6578C59.2077 94.8293 59.8793 94.1578 60.7077 94.1578H67.9331C70.3236 94.1578 72.1944 94.7292 73.4949 95.8041C74.8212 96.9003 75.394 98.3907 75.394 99.8536C75.394 102.59 73.325 105.557 70.2288 105.823C57.5323 106.911 49.9443 106.505 45.2029 105.43C42.8158 104.889 41.113 104.17 39.8328 103.36C38.5405 102.543 37.7461 101.674 37.1482 100.943C33.893 96.9642 31.4355 94.1654 29.3735 92.3611C27.3082 90.554 25.8475 89.9324 24.581 89.9324H21.7457V94.9902H13.0204C12.192 94.9902 11.5204 94.3186 11.5204 93.4902C11.5204 92.6617 12.192 91.9902 13.0204 91.9902H18.7457V68.9789H8.74011V84.8197C8.74011 85.6482 8.06854 86.3197 7.24011 86.3197C6.41169 86.3197 5.74011 85.6482 5.74011 84.8197V65.9789Z" fill="#413488"/>
<path d="M8.6847 93.4902C8.6847 94.2883 8.03772 94.9353 7.23963 94.9353C6.44154 94.9353 5.79456 94.2883 5.79456 93.4902C5.79456 92.6921 6.44154 92.0452 7.23963 92.0452C8.03772 92.0452 8.6847 92.6921 8.6847 93.4902Z" fill="#413488"/>
<path d="M89.6078 62.4212C88.4106 62.4212 87.4402 61.4507 87.4402 60.2535C87.4402 59.0564 88.4106 58.0859 89.6078 58.0859C90.8049 58.0859 91.7754 59.0564 91.7754 60.2535C91.7754 61.4507 90.8049 62.4212 89.6078 62.4212Z" fill="#FFB800"/>
<path d="M88.3778 69.1062C87.2103 68.8417 86.4782 67.6807 86.7428 66.5132C87.0073 65.3457 88.1683 64.6136 89.3358 64.8782C90.5034 65.1427 91.2354 66.3037 90.9708 67.4712C90.7063 68.6387 89.5454 69.3708 88.3778 69.1062Z" fill="#FFB800"/>
<path d="M85.6751 75.3613C84.5964 74.8422 84.1428 73.5469 84.6619 72.4682C85.1811 71.3894 86.4764 70.9358 87.5551 71.455C88.6338 71.9742 89.0874 73.2695 88.5683 74.3482C88.0491 75.4269 86.7538 75.8805 85.6751 75.3613Z" fill="#FFB800"/>
<path d="M81.6462 80.8595C80.7098 80.1136 80.5554 78.7498 81.3013 77.8135C82.0472 76.8771 83.4109 76.7227 84.3473 77.4686C85.2837 78.2145 85.4381 79.5783 84.6922 80.5146C83.9462 81.451 82.5825 81.6054 81.6462 80.8595Z" fill="#FFB800"/>
<path d="M76.5063 85.3267C75.757 84.3931 75.9064 83.0288 76.84 82.2795C77.7737 81.5302 79.138 81.6796 79.8873 82.6132C80.6366 83.5469 80.4872 84.9111 79.5535 85.6605C78.6199 86.4098 77.2556 86.2603 76.5063 85.3267Z" fill="#FFB800"/>
<path d="M70.4895 88.5448C69.9663 87.4681 70.4151 86.1711 71.4919 85.6479C72.5686 85.1247 73.8656 85.5735 74.3888 86.6503C74.912 87.7271 74.4632 89.0241 73.3864 89.5472C72.3096 90.0704 71.0126 89.6216 70.4895 88.5448Z" fill="#FFB800"/>
<path d="M63.9068 90.3319C63.6378 89.1654 64.3654 88.0016 65.5319 87.7327C66.6984 87.4637 67.8621 88.1913 68.1311 89.3578C68.4001 90.5243 67.6725 91.688 66.506 91.957C65.3395 92.226 64.1757 91.4984 63.9068 90.3319Z" fill="#FFB800"/>
<path d="M29.1809 64.8523C30.3485 64.5878 31.5094 65.3198 31.7739 66.4873C32.0385 67.6549 31.3065 68.8158 30.1389 69.0803C28.9714 69.3449 27.8104 68.6128 27.5459 67.4453C27.2814 66.2778 28.0134 65.1168 29.1809 64.8523Z" fill="#FFB800"/>
<path d="M28.932 57.8464C30.1291 57.8557 31.092 58.8336 31.0828 60.0307C31.0735 61.2278 30.0956 62.1908 28.8985 62.1815C27.7014 62.1723 26.7384 61.1944 26.7477 59.9973C26.7569 58.8002 27.7349 57.8372 28.932 57.8464Z" fill="#FFB800"/>
<path d="M30.2097 51.1918C31.3752 51.4653 32.0984 52.6317 31.825 53.7972C31.5515 54.9627 30.3851 55.6859 29.2196 55.4124C28.0541 55.139 27.3309 53.9725 27.6043 52.807C27.8778 51.6416 29.0442 50.9184 30.2097 51.1918Z" fill="#FFB800"/>
<path d="M32.9452 44.9791C34.02 45.5062 34.464 46.8049 33.9369 47.8797C33.4097 48.9545 32.111 49.3985 31.0362 48.8714C29.9614 48.3442 29.5174 47.0456 30.0446 45.9707C30.5717 44.8959 31.8704 44.4519 32.9452 44.9791Z" fill="#FFB800"/>
<path d="M36.9934 39.527C37.9243 40.2797 38.0687 41.6445 37.316 42.5754C36.5633 43.5063 35.1985 43.6507 34.2676 42.898C33.3367 42.1453 33.1922 40.7805 33.9449 39.8496C34.6976 38.9187 36.0625 38.7743 36.9934 39.527Z" fill="#FFB800"/>
<path d="M42.0987 35.1363C42.8412 36.0754 42.6818 37.4386 41.7427 38.181C40.8037 38.9235 39.4405 38.7642 38.698 37.8251C37.9555 36.886 38.1149 35.5229 39.054 34.7804C39.993 34.0379 41.3562 34.1972 42.0987 35.1363Z" fill="#FFB800"/>
<path d="M48.0961 31.9503C48.6112 33.0309 48.1528 34.3245 47.0722 34.8397C45.9915 35.3548 44.6979 34.8964 44.1828 33.8158C43.6676 32.7352 44.126 31.4415 45.2067 30.9264C46.2873 30.4112 47.5809 30.8696 48.0961 31.9503Z" fill="#FFB800"/>
<path d="M54.6557 30.1825C54.9158 31.351 54.1794 32.5092 53.0108 32.7693C51.8423 33.0294 50.6842 32.2929 50.4241 31.1244C50.164 29.9558 50.9004 28.7977 52.069 28.5376C53.2375 28.2775 54.3956 29.014 54.6557 30.1825Z" fill="#FFB800"/>
<path d="M89.3654 55.8383C88.1959 56.094 87.0405 55.3531 86.7849 54.1836C86.5293 53.0141 87.2701 51.8588 88.4396 51.6031C89.6092 51.3475 90.7645 52.0883 91.0201 53.2579C91.2758 54.4274 90.5349 55.5827 89.3654 55.8383Z" fill="#FFB800"/>
<path fill-rule="evenodd" clip-rule="evenodd" d="M113.302 55.8475H97.2961V51.5123H90.1257C84.5761 51.5123 79.3717 48.7481 74.9246 45.2275C70.457 41.6906 66.5805 37.2521 63.6657 33.6085C61.7261 31.184 62.6196 28.2711 64.5417 26.7417C66.5277 25.1614 69.6024 24.9359 72.3001 27.1839L72.3161 27.1973L82.4315 35.8678C83.0604 36.4069 83.1333 37.3539 82.5942 37.9829C82.055 38.6119 81.1081 38.6847 80.4791 38.1456L70.372 29.4823C68.7373 28.1248 67.248 28.4222 66.4097 29.0892C65.5063 29.808 65.316 30.8691 66.0083 31.7344C68.8737 35.3162 72.5839 39.5481 76.7867 42.8753C81.01 46.2188 85.5598 48.5123 90.1257 48.5123H97.2961V34.894H94.4609C92.1147 34.894 89.9628 33.7092 87.6929 31.723C85.4197 29.734 82.8194 26.7526 79.5718 22.7833C79.0859 22.1894 78.5256 21.5835 77.6051 21.0012C76.6726 20.4112 75.3045 19.8049 73.1758 19.3224C68.8855 18.3499 61.6615 17.9134 49.0693 18.9928C47.8302 19.099 46.6479 20.4672 46.6479 21.9728C46.6479 22.631 46.8879 23.2385 47.4583 23.71C48.0544 24.2027 49.1641 24.6687 51.1088 24.6687H58.3341C59.1626 24.6687 59.8341 25.3402 59.8341 26.1687C59.8341 26.9971 59.1626 27.6687 58.3341 27.6687H51.1088C48.7183 27.6687 46.8475 27.0972 45.547 26.0223C44.2207 24.9261 43.6479 23.4357 43.6479 21.9728C43.6479 19.2361 45.7169 16.2691 48.8131 16.0037C61.5096 14.9154 69.0976 15.3219 73.839 16.3966C76.2261 16.9377 77.9288 17.656 79.209 18.466C80.5014 19.2836 81.2958 20.1528 81.8937 20.8836C85.1489 24.8622 87.6064 27.6611 89.6684 29.4653C91.7337 31.2725 93.1944 31.894 94.4609 31.894H97.2961V26.8363H106.021C106.85 26.8363 107.521 27.5078 107.521 28.3363C107.521 29.1647 106.85 29.8363 106.021 29.8363H100.296V52.8475H110.302V37.0067C110.302 36.1783 110.973 35.5067 111.802 35.5067C112.63 35.5067 113.302 36.1783 113.302 37.0067V55.8475Z" fill="#413488"/>
<path d="M110.356 28.3361C110.356 27.538 111.003 26.891 111.801 26.891C112.599 26.891 113.246 27.538 113.246 28.3361C113.246 29.1341 112.599 29.7811 111.801 29.7811C111.003 29.7811 110.356 29.1341 110.356 28.3361Z" fill="#413488"/>
<path fill-rule="evenodd" clip-rule="evenodd" d="M66.4911 51.6382C63.9969 51.6382 61.7993 52.9104 60.5125 54.8482L58.0133 53.1886C59.8324 50.4492 62.9499 48.6382 66.4911 48.6382C72.108 48.6382 76.6615 53.1916 76.6615 58.8086C76.6615 62.3476 74.8526 65.4635 72.116 67.2831L70.455 64.7849C72.3909 63.4977 73.6615 61.3012 73.6615 58.8086C73.6615 54.8485 70.4512 51.6382 66.4911 51.6382Z" fill="#413488"/>
<path fill-rule="evenodd" clip-rule="evenodd" d="M59.382 73.2883L47.1579 64.1118L45.3568 66.511L58.4904 76.3702C59.0281 76.7739 59.7688 76.7704 60.3028 76.3616L73.1805 66.5024L71.3568 64.1204L59.382 73.2883Z" fill="#413488"/>
<path fill-rule="evenodd" clip-rule="evenodd" d="M52.0386 51.6382C54.5328 51.6382 56.7304 52.9104 58.0172 54.8482C58.4755 55.5383 59.4065 55.7263 60.0966 55.268C60.7867 54.8097 60.9747 53.8788 60.5164 53.1886C58.6973 50.4492 55.5798 48.6382 52.0386 48.6382C46.4217 48.6382 41.8682 53.1916 41.8682 58.8086C41.8682 62.3476 43.6771 65.4635 46.4137 67.2831L48.0747 64.7849C46.1388 63.4977 44.8682 61.3012 44.8682 58.8086C44.8682 54.8485 48.0785 51.6382 52.0386 51.6382Z" fill="#413488"/>
</g>
</g>
<defs>
<clipPath id="clip0_655_2244">
<rect width="120" height="120" fill="white"/>
</clipPath>
<clipPath id="clip1_655_2244">
<rect width="120" height="120" fill="white"/>
</clipPath>
</defs>
</svg>
