<svg width="120" height="120" viewBox="0 0 120 120" fill="none" xmlns="http://www.w3.org/2000/svg">
<g clip-path="url(#clip0_655_1251)">
<path fill-rule="evenodd" clip-rule="evenodd" d="M32.2738 14.5001C28.6841 14.5001 25.774 17.4102 25.774 21C25.774 24.5897 28.6841 27.4998 32.2738 27.4998C35.8636 27.4998 38.7737 24.5897 38.7737 21C38.7737 17.4102 35.8636 14.5001 32.2738 14.5001ZM22.774 21C22.774 15.7533 27.0272 11.5001 32.2738 11.5001C37.5205 11.5001 41.7737 15.7533 41.7737 21C41.7737 26.2466 37.5205 30.4998 32.2738 30.4998C27.0272 30.4998 22.774 26.2466 22.774 21Z" fill="#FFB800"/>
<path fill-rule="evenodd" clip-rule="evenodd" d="M59.911 14.5001C56.3213 14.5001 53.4112 17.4102 53.4112 21C53.4112 24.5897 56.3213 27.4998 59.911 27.4998C63.5008 27.4998 66.4109 24.5897 66.4109 21C66.4109 17.4102 63.5008 14.5001 59.911 14.5001ZM50.4112 21C50.4112 15.7533 54.6644 11.5001 59.911 11.5001C65.1577 11.5001 69.4109 15.7533 69.4109 21C69.4109 26.2466 65.1577 30.4998 59.911 30.4998C54.6644 30.4998 50.4112 26.2466 50.4112 21Z" fill="#FFB800"/>
<path fill-rule="evenodd" clip-rule="evenodd" d="M60.6367 43.5906C57.5619 43.5906 54.8641 46.3348 54.8641 49.9836C54.8641 50.7762 54.994 51.531 55.2294 52.2257C55.4951 53.0104 55.0745 53.8619 54.2899 54.1277C53.5052 54.3935 52.6537 53.9728 52.3879 53.1882C52.0482 52.1851 51.8641 51.1053 51.8641 49.9836C51.8641 44.9139 55.6785 40.5906 60.6367 40.5906C65.5949 40.5906 69.4093 44.9139 69.4093 49.9836C69.4093 52.293 68.6292 54.4235 67.3186 56.0716C66.803 56.72 65.8594 56.8277 65.211 56.312C64.5626 55.7964 64.4549 54.8528 64.9706 54.2044C65.8594 53.0867 66.4093 51.6142 66.4093 49.9836C66.4093 46.3348 63.7116 43.5906 60.6367 43.5906Z" fill="#413488"/>
<path fill-rule="evenodd" clip-rule="evenodd" d="M37.7872 29.3659C38.3885 28.796 39.3379 28.8215 39.9078 29.4228L52.314 42.5134C52.8838 43.1147 52.8583 44.0641 52.257 44.634C51.6557 45.2039 50.7063 45.1784 50.1365 44.5771L37.7303 31.4864C37.1604 30.8851 37.1859 29.9357 37.7872 29.3659ZM82.0607 29.3939C82.6465 29.9797 82.6465 30.9295 82.0607 31.5153L69.5324 44.0436C68.9466 44.6293 67.9969 44.6293 67.4111 44.0436C66.8253 43.4578 66.8253 42.508 67.4111 41.9222L79.9394 29.3939C80.5252 28.8081 81.4749 28.8081 82.0607 29.3939ZM59.9095 30.9484C60.738 30.9484 61.4095 31.62 61.4095 32.4484V38.9312C61.4095 39.7596 60.738 40.4312 59.9095 40.4312C59.0811 40.4312 58.4095 39.7596 58.4095 38.9312V32.4484C58.4095 31.62 59.0811 30.9484 59.9095 30.9484Z" fill="#413488"/>
<path fill-rule="evenodd" clip-rule="evenodd" d="M87.5451 14.5001C83.9553 14.5001 81.0452 17.4102 81.0452 21C81.0452 24.5897 83.9553 27.4998 87.5451 27.4998C91.1348 27.4998 94.0449 24.5897 94.0449 21C94.0449 17.4102 91.1348 14.5001 87.5451 14.5001ZM78.0452 21C78.0452 15.7533 82.2985 11.5001 87.5451 11.5001C92.7917 11.5001 97.0449 15.7533 97.0449 21C97.0449 26.2466 92.7917 30.4998 87.5451 30.4998C82.2985 30.4998 78.0452 26.2466 78.0452 21Z" fill="#FFB800"/>
<path fill-rule="evenodd" clip-rule="evenodd" d="M59.3723 52.3198C60.2472 52.3653 60.8994 52.952 60.8994 53.8071V67.279C60.8994 68.1075 61.571 68.779 62.3994 68.779C63.2278 68.779 63.8994 68.1075 63.8994 67.279V63.4314C64.5431 62.7075 65.1903 62.6738 65.5665 62.7991C66.012 62.9475 66.6353 63.5044 66.6353 64.8296V68.431C66.6353 69.2594 67.3069 69.931 68.1353 69.931C68.9637 69.931 69.6353 69.2594 69.6353 68.431V65.2855C70.2494 64.4828 70.9822 64.3426 71.4153 64.4491C71.8128 64.5469 72.5339 65.0132 72.5339 66.6667V70.9533C72.5339 71.7817 73.2054 72.4533 74.0339 72.4533C74.8623 72.4533 75.5339 71.7817 75.5339 70.9533V66.9907C75.7511 66.6602 76.2855 66.3378 77.0239 66.377C77.4026 66.397 77.6676 66.5174 77.8126 66.6446C77.9232 66.7415 78.0449 66.906 78.0449 67.279V81.2906C78.0449 83.9815 77.1182 85.7795 76.0927 87.4131C75.9583 87.6273 75.8139 87.8506 75.666 88.0793C75.2743 88.6852 74.8577 89.3296 74.535 89.9446C74.2749 90.4402 74.0414 90.9747 73.8846 91.5551H62.0668C61.953 90.3673 61.7084 89.3858 61.4031 88.5959C61.0254 87.6188 60.5203 86.8504 59.9819 86.3925L48.3279 73.6281C48.1389 73.421 48.0414 73.2021 48.0159 73.0513C48.0043 72.9823 48.01 72.9437 48.0133 72.9293C48.0156 72.9195 48.0186 72.9097 48.0339 72.8913C48.5149 72.308 49.3835 71.7233 51.0425 72.1522C51.2727 72.2118 51.5406 72.3606 51.8435 72.6292L55.2807 75.6774C55.7202 76.0672 56.3468 76.1645 56.8838 75.9265C57.4209 75.6885 57.7695 75.1588 57.7759 74.5714L58.0009 53.807C58.0009 53.1015 58.2299 52.77 58.4149 52.6067C58.6262 52.4203 58.9586 52.2983 59.3723 52.3198ZM59.0493 91.5551H56.2631C55.8652 91.5551 55.4837 91.7131 55.2024 91.9944C54.9211 92.2757 54.7631 92.6573 54.7631 93.0551L54.7631 100.13C54.7631 100.958 55.4346 101.63 56.2631 101.63C57.0915 101.63 57.7631 100.958 57.7631 100.13L57.7631 94.5551H78.066L78.1946 103.796L64.4713 103.949C63.6429 103.959 62.9789 104.638 62.9881 105.466C62.9974 106.294 63.6764 106.958 64.5048 106.949L79.7322 106.779C80.1307 106.775 80.511 106.612 80.7893 106.326C81.0675 106.041 81.2208 105.657 81.2152 105.258L81.0452 93.0342C81.0337 92.214 80.3656 91.5551 79.5453 91.5551H77.0822C77.1163 91.4844 77.1527 91.4123 77.1914 91.3386C77.4475 90.8506 77.7479 90.3862 78.1048 89.8344C78.2688 89.581 78.4446 89.3091 78.6336 89.0081C79.7899 87.1659 81.0449 84.7963 81.0449 81.2906V67.279C81.0449 66.0851 80.5824 65.0833 79.7905 64.3889C79.033 63.7247 78.0773 63.4286 77.1828 63.3812C76.4599 63.3428 75.6478 63.4709 74.9 63.793C74.3176 62.6453 73.3594 61.8379 72.1317 61.5359C71.0391 61.2672 69.9216 61.4522 68.9385 61.9964C68.3955 61.0258 67.559 60.3008 66.5146 59.9529C65.6483 59.6643 64.7487 59.6715 63.8994 59.9435V53.8071C63.8994 50.9881 61.6023 49.4316 59.5279 49.3239C58.467 49.2688 57.3248 49.5677 56.43 50.3573C55.511 51.1682 55.0029 52.3644 55.0008 53.7984L54.8117 71.2517L53.834 70.3847C53.3115 69.9213 52.6313 69.4644 51.7935 69.2478C48.9329 68.5081 46.8927 69.5598 45.7194 70.9825C44.3629 72.6273 45.1807 74.6304 46.1124 75.6509L57.8424 88.4986C57.9061 88.5683 57.9762 88.6319 58.0518 88.6884C58.0486 88.686 58.0502 88.6877 58.056 88.694C58.0969 88.7386 58.3475 89.0117 58.6048 89.6775C58.7828 90.1379 58.9515 90.7571 59.0493 91.5551Z" fill="#413488"/>
<path d="M56.1772 104.264C55.427 104.275 54.8274 104.891 54.8378 105.642C54.8483 106.392 55.4648 106.991 56.215 106.981C56.9651 106.97 57.5647 106.354 57.5543 105.604C57.5438 104.854 56.9273 104.254 56.1772 104.264Z" fill="#413488"/>
</g>
<defs>
<clipPath id="clip0_655_1251">
<rect width="120" height="120" fill="white"/>
</clipPath>
</defs>
</svg>
