<svg width="208" height="50" viewBox="0 0 208 50" fill="none" xmlns="http://www.w3.org/2000/svg">
<g clip-path="url(#clip0_609_1479)">
<path d="M34.8143 2.55228H0V36.3808C0 42.2594 4.76429 47.0237 10.6429 47.0237H34.8143V38.5094H10.6714V28.9166V20.6594V11.0666H34.8143V2.55228Z" fill="url(#paint0_linear_609_1479)"/>
<path d="M18.0143 22.9309H12.2715V27.3951H18.0143V32.8166H22.6572V27.3951H28.3929V22.9309H22.6572V17.5094H18.0143V22.9309Z" fill="url(#paint1_linear_609_1479)"/>
<path d="M10.6714 38.5094L25.6 38.4808H34.9142V47.0237C34.9142 47.0237 30.8142 47.0237 21.9214 47.0237C13.0285 47.0237 10.6714 38.5094 10.6714 38.5094Z" fill="url(#paint2_linear_609_1479)"/>
</g>
<path d="M54.402 20.146V23.818H58.722V25.492H54.402V29.326H59.262V31H52.35V18.472H59.262V20.146H54.402ZM75.2715 18.49L70.5735 31H68.1975L63.4815 18.49H65.6775L69.3855 28.894L73.1115 18.49H75.2715ZM85.3935 31.126C84.2295 31.126 83.1555 30.856 82.1715 30.316C81.1995 29.764 80.4255 29.002 79.8495 28.03C79.2855 27.046 79.0035 25.942 79.0035 24.718C79.0035 23.494 79.2855 22.396 79.8495 21.424C80.4255 20.452 81.1995 19.696 82.1715 19.156C83.1555 18.604 84.2295 18.328 85.3935 18.328C86.5695 18.328 87.6435 18.604 88.6155 19.156C89.5995 19.696 90.3735 20.452 90.9375 21.424C91.5015 22.396 91.7835 23.494 91.7835 24.718C91.7835 25.942 91.5015 27.046 90.9375 28.03C90.3735 29.002 89.5995 29.764 88.6155 30.316C87.6435 30.856 86.5695 31.126 85.3935 31.126ZM85.3935 29.344C86.2215 29.344 86.9595 29.158 87.6075 28.786C88.2555 28.402 88.7595 27.862 89.1195 27.166C89.4915 26.458 89.6775 25.642 89.6775 24.718C89.6775 23.794 89.4915 22.984 89.1195 22.288C88.7595 21.592 88.2555 21.058 87.6075 20.686C86.9595 20.314 86.2215 20.128 85.3935 20.128C84.5655 20.128 83.8275 20.314 83.1795 20.686C82.5315 21.058 82.0215 21.592 81.6495 22.288C81.2895 22.984 81.1095 23.794 81.1095 24.718C81.1095 25.642 81.2895 26.458 81.6495 27.166C82.0215 27.862 82.5315 28.402 83.1795 28.786C83.8275 29.158 84.5655 29.344 85.3935 29.344ZM103.397 31L98.5547 25.402V31H96.5027V18.49H98.5547V24.196L103.415 18.49H105.989L100.553 24.754L106.079 31H103.397ZM112.645 20.146V23.818H116.965V25.492H112.645V29.326H117.505V31H110.593V18.472H117.505V20.146H112.645ZM140.099 18.49V31H138.047V25.528H132.161V31H130.109V18.49H132.161V23.854H138.047V18.49H140.099ZM147.552 20.146V23.818H151.872V25.492H147.552V29.326H152.412V31H145.5V18.472H152.412V20.146H147.552ZM165.181 28.444H159.943L159.043 31H156.901L161.383 18.472H163.759L168.241 31H166.081L165.181 28.444ZM164.605 26.77L162.571 20.956L160.519 26.77H164.605ZM174.942 29.344H179.172V31H172.89V18.49H174.942V29.344ZM191.67 18.49V20.164H188.34V31H186.288V20.164H182.94V18.49H191.67ZM206.438 18.49V31H204.386V25.528H198.5V31H196.448V18.49H198.5V23.854H204.386V18.49H206.438Z" fill="#403488"/>
<defs>
<linearGradient id="paint0_linear_609_1479" x1="7.26143" y1="46.5489" x2="29.0329" y2="-0.140148" gradientUnits="userSpaceOnUse">
<stop stop-color="#1173B8"/>
<stop offset="0.0673" stop-color="#2766AE"/>
<stop offset="0.2075" stop-color="#3A4C99"/>
<stop offset="0.347" stop-color="#3D4594"/>
<stop offset="0.504" stop-color="#3E4191"/>
<stop offset="0.7134" stop-color="#3F3F90"/>
<stop offset="0.8718" stop-color="#403A8D"/>
<stop offset="1" stop-color="#413488"/>
</linearGradient>
<linearGradient id="paint1_linear_609_1479" x1="16.9864" y1="32.3355" x2="23.6786" y2="17.9839" gradientUnits="userSpaceOnUse">
<stop stop-color="#1173B8"/>
<stop offset="0.0986" stop-color="#2766AE"/>
<stop offset="0.2738" stop-color="#37529E"/>
<stop offset="0.4151" stop-color="#3D4594"/>
<stop offset="0.504" stop-color="#3E4191"/>
<stop offset="0.7134" stop-color="#3F3F90"/>
<stop offset="0.8718" stop-color="#403A8D"/>
<stop offset="1" stop-color="#413488"/>
</linearGradient>
<linearGradient id="paint2_linear_609_1479" x1="19.2802" y1="47.7858" x2="28.7955" y2="34.1965" gradientUnits="userSpaceOnUse">
<stop stop-color="#413488"/>
<stop offset="0.0707" stop-color="#41378A"/>
<stop offset="0.4383" stop-color="#3D4594"/>
<stop offset="0.7604" stop-color="#394E9B"/>
<stop offset="1" stop-color="#37529E"/>
</linearGradient>
<clipPath id="clip0_609_1479">
<rect width="35" height="50" fill="white"/>
</clipPath>
</defs>
</svg>
