<svg width="120" height="120" viewBox="0 0 120 120" fill="none" xmlns="http://www.w3.org/2000/svg">
<g clip-path="url(#clip0_655_1204)">
<g clip-path="url(#clip1_655_1204)">
<path fill-rule="evenodd" clip-rule="evenodd" d="M59.9431 18.0001C51.3173 18.0001 43.8742 23.0768 40.4444 30.4119L37.7268 29.1412C41.6315 20.7905 50.1095 15.0001 59.9431 15.0001C73.4809 15.0001 84.4555 25.9747 84.4555 39.5126C84.4555 53.0504 73.4809 64.025 59.9431 64.025C51.2084 64.025 43.542 59.4553 39.2027 52.5833L41.7393 50.9815C45.5522 57.0198 52.2804 61.025 59.9431 61.025C71.8241 61.025 81.4555 51.3936 81.4555 39.5126C81.4555 27.6316 71.8241 18.0001 59.9431 18.0001Z" fill="#413488"/>
<path fill-rule="evenodd" clip-rule="evenodd" d="M59.9432 39.2424C59.7939 39.2424 59.673 39.3634 59.673 39.5126C59.673 39.6618 59.7939 39.7828 59.9432 39.7828C60.0924 39.7828 60.2134 39.6618 60.2134 39.5126C60.2134 39.3634 60.0924 39.2424 59.9432 39.2424ZM56.673 39.5126C56.673 37.7065 58.1371 36.2424 59.9432 36.2424C61.7492 36.2424 63.2134 37.7065 63.2134 39.5126C63.2134 41.3187 61.7492 42.7828 59.9432 42.7828C58.1371 42.7828 56.673 41.3187 56.673 39.5126Z" fill="#413488"/>
<path fill-rule="evenodd" clip-rule="evenodd" d="M59.9432 24.7362C60.7717 24.7362 61.4432 25.4078 61.4432 26.2362V37.7424C61.4432 38.5709 60.7717 39.2424 59.9432 39.2424C59.1148 39.2424 58.4432 38.5709 58.4432 37.7424V26.2362C58.4432 25.4078 59.1148 24.7362 59.9432 24.7362ZM59.4843 39.6692C59.8866 40.3934 59.6257 41.3066 58.9015 41.709L50.9356 46.1344C50.2115 46.5367 49.2983 46.2758 48.8959 45.5517C48.4936 44.8275 48.7545 43.9143 49.4787 43.512L57.4446 39.0865C58.1687 38.6842 59.0819 38.9451 59.4843 39.6692Z" fill="#413488"/>
<path d="M77.9998 40.2206C77.0222 40.2206 76.2296 39.8244 76.2296 39.3355C76.2296 38.8467 77.0222 38.4504 77.9998 38.4504C78.9775 38.4504 79.77 38.8467 79.77 39.3355C79.77 39.8244 78.9775 40.2206 77.9998 40.2206Z" fill="#FFB800"/>
<path d="M75.2393 49.1398C74.3921 48.6518 73.9031 47.9129 74.1471 47.4893C74.391 47.0657 75.2756 47.1179 76.1228 47.6058C76.97 48.0937 77.459 48.8326 77.215 49.2562C76.971 49.6798 76.0865 49.6277 75.2393 49.1398Z" fill="#FFB800"/>
<path d="M68.3646 55.5053C67.8736 54.6599 67.8182 53.7755 68.2409 53.53C68.6635 53.2845 69.4043 53.7708 69.8953 54.6161C70.3864 55.4615 70.4418 56.3459 70.0191 56.5914C69.5964 56.8369 68.8557 56.3506 68.3646 55.5053Z" fill="#FFB800"/>
<path d="M59.1643 57.5655C59.168 56.5879 59.5674 55.7969 60.0562 55.7988C60.545 55.8006 60.9382 56.5947 60.9344 57.5724C60.9307 58.55 60.5313 59.341 60.0425 59.3391C59.5537 59.3372 59.1605 58.5432 59.1643 57.5655Z" fill="#FFB800"/>
<path d="M50.2457 54.7635C50.7368 53.9182 51.4775 53.4319 51.9002 53.6774C52.3229 53.9229 52.2675 54.8073 51.7764 55.6526C51.2854 56.498 50.5447 56.9843 50.122 56.7388C49.6993 56.4933 49.7547 55.6089 50.2457 54.7635Z" fill="#FFB800"/>
<path d="M43.9247 47.8824C44.7719 47.3944 45.6564 47.3423 45.9004 47.7659C46.1443 48.1895 45.6553 48.9284 44.8081 49.4163C43.961 49.9043 43.0764 49.9564 42.8324 49.5328C42.5885 49.1092 43.0775 48.3703 43.9247 47.8824Z" fill="#FFB800"/>
<path d="M41.8938 38.662C42.8714 38.6695 43.6609 39.0719 43.6571 39.5607C43.6533 40.0495 42.8577 40.4397 41.8801 40.4321C40.9025 40.4246 40.113 40.0222 40.1168 39.5334C40.1206 39.0446 40.9162 38.6544 41.8938 38.662Z" fill="#FFB800"/>
<path d="M44.7 29.8073C45.5436 30.3014 46.0271 31.0439 45.78 31.4657C45.533 31.8875 44.6488 31.8288 43.8053 31.3347C42.9617 30.8405 42.4781 30.098 42.7252 29.6762C42.9723 29.2544 43.8564 29.3131 44.7 29.8073Z" fill="#FFB800"/>
<path d="M51.5877 23.488C52.0725 24.337 52.1214 25.2217 51.6969 25.4641C51.2725 25.7065 50.5353 25.2148 50.0505 24.3658C49.5657 23.5168 49.5168 22.6321 49.9413 22.3897C50.3658 22.1473 51.1029 22.639 51.5877 23.488Z" fill="#FFB800"/>
<path d="M60.8647 21.466C60.8534 22.4436 60.4479 23.2315 59.9592 23.2258C59.4704 23.2201 59.0833 22.4231 59.0946 21.4455C59.1059 20.4679 59.5114 19.68 60.0001 19.6857C60.4889 19.6913 60.876 20.4884 60.8647 21.466Z" fill="#FFB800"/>
<path d="M69.6877 24.2942C69.1905 25.136 68.4462 25.6168 68.0253 25.3682C67.6044 25.1195 67.6664 24.2356 68.1636 23.3939C68.6609 22.5521 69.4052 22.0713 69.826 22.3199C70.2469 22.5686 70.185 23.4525 69.6877 24.2942Z" fill="#FFB800"/>
<path d="M76.005 31.2265C75.1543 31.7082 74.2694 31.7538 74.0285 31.3284C73.7877 30.9031 74.2821 30.1678 75.1329 29.6861C75.9837 29.2044 76.8686 29.1588 77.1094 29.5842C77.3502 30.0096 76.8558 30.7449 76.005 31.2265Z" fill="#FFB800"/>
<path d="M26.3236 21.8245C27.3012 21.832 28.0907 22.2344 28.0869 22.7232C28.0831 23.212 27.2875 23.6021 26.3099 23.5946C25.3323 23.5871 24.5429 23.1847 24.5466 22.6959C24.5504 22.2071 25.346 21.8169 26.3236 21.8245Z" fill="#FFB800"/>
<path fill-rule="evenodd" clip-rule="evenodd" d="M25.7304 21.9832C25.7305 21.9831 25.7319 21.9839 25.7345 21.9856C25.7317 21.984 25.7304 21.9832 25.7304 21.9832ZM25.7193 23.4268C25.7192 23.4268 25.7206 23.4259 25.7234 23.4244C25.7208 23.4261 25.7193 23.4268 25.7193 23.4268ZM26.9032 23.4359C26.9032 23.436 26.9018 23.4352 26.8991 23.4335C26.902 23.4351 26.9033 23.4359 26.9032 23.4359ZM26.9102 21.9947C26.9129 21.993 26.9143 21.9923 26.9144 21.9923C26.9144 21.9923 26.9131 21.9932 26.9102 21.9947ZM24.3792 24.6622C23.9012 24.4186 23.0381 23.8029 23.0467 22.6843C23.0554 21.5657 23.9279 20.9635 24.4095 20.7273C24.9812 20.4469 25.6641 20.3194 26.3352 20.3245C27.0064 20.3297 27.6872 20.4678 28.2545 20.757C28.7324 21.0006 29.5956 21.6162 29.5869 22.7348C29.5783 23.8534 28.7057 24.4557 28.2241 24.6918C27.6524 24.9722 26.9696 25.0998 26.2984 25.0946C25.6272 25.0894 24.9465 24.9513 24.3792 24.6622Z" fill="#FFB800"/>
<path d="M36.9448 34.2157C37.9224 34.2232 38.7119 34.6256 38.7081 35.1144C38.7043 35.6032 37.9088 35.9934 36.9311 35.9858C35.9535 35.9783 35.1641 35.5759 35.1678 35.0871C35.1716 34.5983 35.9672 34.2081 36.9448 34.2157Z" fill="#FFB800"/>
<path fill-rule="evenodd" clip-rule="evenodd" d="M36.3515 34.3744C36.3516 34.3744 36.353 34.3752 36.3556 34.3769C36.3528 34.3753 36.3515 34.3744 36.3515 34.3744ZM36.3404 35.818C36.3403 35.818 36.3416 35.8172 36.3445 35.8157C36.3419 35.8173 36.3404 35.8181 36.3404 35.818ZM37.5243 35.8272C37.5243 35.8272 37.5228 35.8264 37.5202 35.8247C37.5231 35.8263 37.5244 35.8272 37.5243 35.8272ZM37.5313 34.3859C37.534 34.3843 37.5354 34.3835 37.5355 34.3835C37.5355 34.3836 37.5342 34.3844 37.5313 34.3859ZM35.0003 37.0534C34.5223 36.8098 33.6592 36.1942 33.6678 35.0755C33.6765 33.9569 34.549 33.3547 35.0306 33.1185C35.6023 32.8382 36.2852 32.7106 36.9563 32.7158C37.6275 32.721 38.3083 32.859 38.8756 33.1482C39.3535 33.3918 40.2166 34.0074 40.208 35.126C40.1994 36.2447 39.3268 36.8469 38.8452 37.0831C38.2735 37.3634 37.5907 37.491 36.9195 37.4858C36.2483 37.4806 35.5676 37.3425 35.0003 37.0534Z" fill="#FFB800"/>
<path fill-rule="evenodd" clip-rule="evenodd" d="M38.4307 22.6957C38.4307 23.5241 37.7591 24.1957 36.9307 24.1957H33.3903C32.5619 24.1957 31.8903 23.5241 31.8903 22.6957C31.8903 21.8673 32.5619 21.1957 33.3903 21.1957H36.9307C37.7591 21.1957 38.4307 21.8673 38.4307 22.6957Z" fill="#FFB800"/>
<path fill-rule="evenodd" clip-rule="evenodd" d="M31.3503 35.9722C31.3503 36.8006 30.6788 37.4722 29.8503 37.4722H20.9994C20.171 37.4722 19.4994 36.8006 19.4994 35.9722C19.4994 35.1437 20.171 34.4722 20.9994 34.4722H29.8503C30.6788 34.4722 31.3503 35.1437 31.3503 35.9722Z" fill="#FFB800"/>
<path fill-rule="evenodd" clip-rule="evenodd" d="M40.2012 46.5933C40.2012 47.4217 39.5296 48.0933 38.7012 48.0933H33.3906C32.5622 48.0933 31.8906 47.4217 31.8906 46.5933C31.8906 45.7648 32.5622 45.0933 33.3906 45.0933H38.7012C39.5296 45.0933 40.2012 45.7648 40.2012 46.5933Z" fill="#FFB800"/>
<path fill-rule="evenodd" clip-rule="evenodd" d="M41.9716 58.9846C41.9716 59.813 41.3 60.4846 40.4716 60.4846H36.9312C36.1028 60.4846 35.4312 59.813 35.4312 58.9846C35.4312 58.1562 36.1028 57.4846 36.9312 57.4846H40.4716C41.3 57.4846 41.9716 58.1562 41.9716 58.9846Z" fill="#FFB800"/>
<path fill-rule="evenodd" clip-rule="evenodd" d="M67.2214 103.614C66.3931 103.602 65.7309 102.922 65.7424 102.093L65.9031 90.5493C65.9146 89.7209 66.5954 89.0587 67.4238 89.0703L69.7719 89.1029L69.8581 82.9069C69.9274 77.9258 72.4722 73.304 75.6622 69.3878C78.8687 65.4513 82.868 62.0561 86.1415 59.5112C88.406 57.7507 91.0839 58.6207 92.4624 60.4036C93.8909 62.251 94.0478 65.0716 91.9687 67.4971L91.9551 67.5129L84.1341 76.3844C83.5863 77.0058 82.6384 77.0654 82.017 76.5176C81.3956 75.9698 81.3359 75.0219 81.8838 74.4005L89.6972 65.5374C90.8712 64.1624 90.6205 62.9258 90.0892 62.2387C89.507 61.4857 88.671 61.3447 87.9828 61.8796C84.7717 64.3761 80.9814 67.6078 77.9882 71.2824C74.9784 74.9774 72.9134 78.9511 72.8578 82.9486L72.7716 89.1447L84.5224 89.3082L84.5551 86.9601C84.5849 84.817 85.6953 82.8831 87.4965 80.8815C89.3006 78.8767 91.9894 76.5976 95.5522 73.7645C96.0775 73.3467 96.6073 72.8697 97.122 72.0806C97.6446 71.2795 98.1931 70.0914 98.6442 68.2224C99.5542 64.4515 100.032 58.0653 99.2302 46.8809C99.1587 45.8842 98.048 44.8688 96.7807 44.8512C96.2416 44.8437 95.7493 45.0313 95.3595 45.4897C94.9479 45.9737 94.5272 46.9103 94.5035 48.6114L94.4143 55.0246C94.4028 55.853 93.7219 56.5152 92.8936 56.5036C92.0652 56.4921 91.4031 55.8113 91.4146 54.9829L91.5038 48.5696C91.5337 46.4228 92.0705 44.7266 93.0739 43.5465C94.099 42.3409 95.4788 41.8328 96.8224 41.8515C99.3207 41.8863 102.018 43.8104 102.223 46.6663C103.032 57.9551 102.579 64.7057 101.56 68.9262C101.047 71.0528 100.382 72.574 99.6347 73.7197C98.8795 74.8774 98.0832 75.5847 97.4194 76.1125C93.8472 78.9532 91.3429 81.092 89.7265 82.8883C88.1072 84.6878 87.5696 85.9383 87.5548 87.0018L87.5221 89.3499L90.5116 89.3915C91.3399 89.4031 92.0021 90.0839 91.9906 90.9123L91.9013 97.3255C91.8898 98.1539 91.209 98.816 90.3806 98.8045C89.5523 98.793 88.8901 98.1121 88.9016 97.2838L88.97 92.3704L68.8819 92.0909L68.763 100.635L82.655 100.828C83.4834 100.84 84.1455 101.521 84.134 102.349C84.1225 103.177 83.4416 103.84 82.6133 103.828L67.2214 103.614Z" fill="#413488"/>
<path d="M90.348 101.153C91.0564 101.163 91.6227 101.745 91.6128 102.453C91.603 103.162 91.0207 103.728 90.3123 103.718C89.6039 103.708 89.0377 103.126 89.0475 102.418C89.0574 101.709 89.6396 101.143 90.348 101.153Z" fill="#413488"/>
<path fill-rule="evenodd" clip-rule="evenodd" d="M51.7935 103.614C52.6218 103.602 53.284 102.922 53.2725 102.093L53.1118 90.5493C53.1003 89.7209 52.4195 89.0587 51.5911 89.0703L49.243 89.1029L49.1568 82.9069C49.0875 77.9258 46.5427 73.304 43.3527 69.3878C40.1462 65.4513 36.1469 62.0561 32.8734 59.5112C30.6089 57.7507 27.931 58.6207 26.5525 60.4036C25.124 62.251 24.9671 65.0716 27.0462 67.4971L27.0598 67.5129L34.8807 76.3844C35.4286 77.0058 36.3764 77.0654 36.9979 76.5176C37.6193 75.9698 37.679 75.0219 37.1311 74.4005L29.3176 65.5373C28.1437 64.1624 28.3944 62.9258 28.9257 62.2387C29.5079 61.4857 30.3439 61.3447 31.0321 61.8796C34.2432 64.3761 38.0335 67.6078 41.0267 71.2824C44.0365 74.9774 46.1014 78.9511 46.1571 82.9486L46.2433 89.1447L34.4925 89.3082L34.4598 86.9601C34.43 84.817 33.3196 82.8831 31.5184 80.8815C29.7143 78.8767 27.0255 76.5976 23.4627 73.7645C22.9374 73.3467 22.4076 72.8697 21.8929 72.0806C21.3703 71.2795 20.8218 70.0914 20.3707 68.2224C19.4606 64.4515 18.9826 58.0653 19.7847 46.8809C19.8561 45.8842 20.9669 44.8688 22.2342 44.8512C22.7732 44.8437 23.2656 45.0312 23.6554 45.4897C24.0669 45.9737 24.4877 46.9103 24.5114 48.6114L24.6006 55.0246C24.6121 55.853 25.293 56.5152 26.1213 56.5036C26.9497 56.4921 27.6118 55.8113 27.6003 54.9829L27.5111 48.5696C27.4812 46.4228 26.9444 44.7266 25.941 43.5465C24.9159 42.3408 23.5361 41.8328 22.1924 41.8515C19.6942 41.8863 16.9972 43.8104 16.7923 46.6663C15.9828 57.9551 16.4359 64.7057 17.4544 68.9262C17.9677 71.0528 18.6329 72.574 19.3802 73.7197C20.1354 74.8774 20.9317 75.5847 21.5955 76.1125C25.1677 78.9532 27.672 81.092 29.2884 82.8883C30.9077 84.6878 31.4453 85.9383 31.4601 87.0018L31.4927 89.3499L28.5033 89.3915C27.675 89.4031 27.0128 90.0839 27.0243 90.9123L27.1136 97.3255C27.1251 98.1539 27.8059 98.816 28.6343 98.8045C29.4626 98.793 30.1248 98.1121 30.1133 97.2838L30.0449 92.3704L50.133 92.0908L50.2519 100.635L36.3599 100.828C35.5315 100.84 34.8694 101.521 34.8809 102.349C34.8924 103.177 35.5733 103.84 36.4016 103.828L51.7935 103.614Z" fill="#413488"/>
<path d="M28.6669 101.153C27.9585 101.163 27.3922 101.745 27.4021 102.453C27.4119 103.162 27.9942 103.728 28.7026 103.718C29.411 103.708 29.9772 103.126 29.9674 102.418C29.9575 101.709 29.3753 101.143 28.6669 101.153Z" fill="#413488"/>
</g>
</g>
<defs>
<clipPath id="clip0_655_1204">
<rect width="120" height="120" fill="white"/>
</clipPath>
<clipPath id="clip1_655_1204">
<rect width="120" height="120" fill="white"/>
</clipPath>
</defs>
</svg>
