<svg width="150" height="150" viewBox="0 0 150 150" fill="none" xmlns="http://www.w3.org/2000/svg">
<path fill-rule="evenodd" clip-rule="evenodd" d="M34.0988 30C34.0988 27.9289 35.7777 26.25 37.8488 26.25H95.942C96.4393 26.25 96.9162 26.4475 97.2678 26.7992L113.475 43.0068C113.827 43.3584 114.025 43.8353 114.025 44.3326V121.875C114.025 123.946 112.346 125.625 110.275 125.625H37.8488C35.7777 125.625 34.0988 123.946 34.0988 121.875V30ZM94.067 30H37.8488V121.875H110.275V46.2076H97.817C95.7459 46.2076 94.067 44.5287 94.067 42.4576V30ZM97.817 32.6516L107.623 42.4576H97.817V32.6516Z" fill="#413488"/>
<path fill-rule="evenodd" clip-rule="evenodd" d="M79.9598 60.9972C81.558 60.1979 83.4084 60.0663 85.1037 60.6313C86.799 61.1962 88.2005 62.4115 88.9998 64.0098C89.3956 64.8012 89.6316 65.6628 89.6944 66.5454C89.7571 67.428 89.6455 68.3143 89.3657 69.1537C89.086 69.9932 88.6436 70.7693 88.064 71.4378C87.4843 72.1063 86.7786 72.6541 85.9872 73.0498C85.1958 73.4456 84.3342 73.6816 83.4516 73.7444C82.569 73.8072 81.6827 73.6955 80.8433 73.4158C80.0038 73.136 79.2277 72.6937 78.5592 72.114C78.3709 71.9507 78.1922 71.7774 78.0238 71.5951L70.1523 75.5308C70.2246 75.9262 70.2624 76.3331 70.2624 76.7481C70.2624 77.1631 70.2246 77.57 70.1523 77.9654L78.0236 81.901C78.7881 81.0732 79.7552 80.4426 80.8434 80.0799C81.6829 79.8 82.5693 79.6883 83.452 79.751C84.3347 79.8138 85.1964 80.0497 85.9879 80.4455C87.5864 81.2447 88.8019 82.6463 89.3671 84.3417C89.9322 86.0372 89.8007 87.8877 89.0015 89.4863C88.2022 91.0848 86.8007 92.3003 85.1052 92.8655C83.4097 93.4306 81.5592 93.2991 79.9607 92.4998C78.3622 91.7006 77.1467 90.2991 76.5815 88.6036C76.2188 87.5154 76.143 86.3634 76.3466 85.2551L68.4756 81.3196C67.8873 81.9565 67.1775 82.4782 66.3814 82.8506C65.0068 83.4937 63.4552 83.6538 61.9782 83.305C60.5012 82.9563 59.1852 82.119 58.2435 80.929C57.3017 79.7389 56.7893 78.2657 56.7893 76.7481C56.7893 75.2305 57.3017 73.7573 58.2435 72.5672C59.1852 71.3772 60.5012 70.5399 61.9782 70.1911C63.4552 69.8424 65.0068 70.0025 66.3814 70.6455C67.1775 71.018 67.8873 71.5397 68.4756 72.1766L76.3465 68.2411C76.143 67.133 76.2187 65.9813 76.5812 64.8933C77.1462 63.198 78.3615 61.7965 79.9598 60.9972ZM66.1982 75.4116C65.8972 74.8098 65.4018 74.3273 64.7924 74.0422C64.1829 73.7571 63.495 73.6861 62.8401 73.8408C62.1852 73.9954 61.6017 74.3666 61.1841 74.8943C60.7665 75.422 60.5393 76.0752 60.5393 76.7481C60.5393 77.421 60.7665 78.0742 61.1841 78.6019C61.6017 79.1295 62.1852 79.5008 62.8401 79.6554C63.495 79.8101 64.1829 79.7391 64.7924 79.4539C65.4019 79.1688 65.8973 78.6862 66.1983 78.0844C66.3989 77.6833 66.5124 77.2307 66.5124 76.7481C66.5124 76.2655 66.3989 75.8129 66.1983 75.4118M83.9181 64.1889C83.1663 63.9384 82.3458 63.9967 81.6371 64.3512C80.9283 64.7056 80.3894 65.3271 80.1389 66.0789C79.8883 66.8307 79.9467 67.6512 80.3012 68.3599C80.4767 68.7109 80.7196 69.0238 81.016 69.2809C81.3124 69.5379 81.6566 69.7341 82.0288 69.8581C82.4011 69.9822 82.7941 70.0317 83.1855 70.0038C83.5769 69.976 83.959 69.8713 84.3099 69.6958C84.6608 69.5203 84.9738 69.2774 85.2308 68.981C85.4879 68.6846 85.684 68.3404 85.8081 67.9682C85.9321 67.5959 85.9817 67.2029 85.9538 66.8115C85.926 66.4201 85.8213 66.038 85.6458 65.6871C85.2914 64.9784 84.6699 64.4394 83.9181 64.1889ZM83.1861 83.4916C82.7947 83.4638 82.4015 83.5133 82.0292 83.6374C81.2773 83.8881 80.6557 84.4272 80.3012 85.1361C79.9467 85.8451 79.8884 86.6658 80.1391 87.4177C80.3897 88.1697 80.9288 88.7913 81.6378 89.1457C82.3467 89.5002 83.1674 89.5585 83.9194 89.3079C84.6713 89.0572 85.2929 88.5181 85.6474 87.8092C86.0018 87.1003 86.0602 86.2795 85.8095 85.5276C85.5589 84.7756 85.0198 84.1541 84.3108 83.7996C83.9598 83.6241 83.5776 83.5194 83.1861 83.4916Z" fill="#FFB800"/>
</svg>
