<svg width="46" height="46" viewBox="0 0 46 46" fill="none" xmlns="http://www.w3.org/2000/svg">
<path fill-rule="evenodd" clip-rule="evenodd" d="M10.7296 9.5C10.7296 8.87868 11.2333 8.375 11.8546 8.375H29.2826C29.4318 8.375 29.5748 8.43426 29.6803 8.53975L34.5426 13.402C34.6481 13.5075 34.7074 13.6506 34.7074 13.7998V37.0625C34.7074 37.6838 34.2037 38.1875 33.5824 38.1875H11.8546C11.2333 38.1875 10.7296 37.6838 10.7296 37.0625V9.5ZM28.7201 9.5H11.8546V37.0625H33.5824V14.3623H29.8451C29.2238 14.3623 28.7201 13.8586 28.7201 13.2373V9.5ZM29.8451 10.2955L32.7869 13.2373H29.8451V10.2955Z" fill="#413488"/>
<path fill-rule="evenodd" clip-rule="evenodd" d="M15.8 29.75C15.8 29.5015 16.0015 29.3 16.25 29.3H29C29.2485 29.3 29.45 29.5015 29.45 29.75C29.45 29.9985 29.2485 30.2 29 30.2H16.25C16.0015 30.2 15.8 29.9985 15.8 29.75Z" fill="#FFB800"/>
<path fill-rule="evenodd" clip-rule="evenodd" d="M15.8 22.9999C15.8 22.7514 16.0015 22.5499 16.25 22.5499H18.5C18.7485 22.5499 18.95 22.7514 18.95 22.9999V27.4999C18.95 27.7485 18.7485 27.9499 18.5 27.9499H16.25C16.0015 27.9499 15.8 27.7485 15.8 27.4999V22.9999ZM16.7 23.4499V27.0499H18.05V23.4499H16.7Z" fill="#FFB800"/>
<path fill-rule="evenodd" clip-rule="evenodd" d="M21.05 17C21.05 16.7515 21.2515 16.55 21.5 16.55H23.75C23.9985 16.55 24.2 16.7515 24.2 17V27.5C24.2 27.7485 23.9985 27.95 23.75 27.95H21.5C21.2515 27.95 21.05 27.7485 21.05 27.5V17ZM21.95 17.45V27.05H23.3V17.45H21.95Z" fill="#FFB800"/>
<path fill-rule="evenodd" clip-rule="evenodd" d="M26.3 19.25C26.3 19.0015 26.5015 18.8 26.75 18.8H29C29.2485 18.8 29.45 19.0015 29.45 19.25V27.5C29.45 27.7485 29.2485 27.95 29 27.95H26.75C26.5015 27.95 26.3 27.7485 26.3 27.5V19.25ZM27.2 19.7V27.05H28.55V19.7H27.2Z" fill="#FFB800"/>
</svg>
