<svg width="60" height="60" viewBox="0 0 60 60" fill="none" xmlns="http://www.w3.org/2000/svg">
<path d="M29.8003 26.5187C29.6167 26.5187 29.4406 26.589 29.3107 26.7141C29.1809 26.8392 29.1079 27.009 29.1079 27.1859C29.1079 27.3629 29.1809 27.5326 29.3107 27.6577C29.4406 27.7829 29.6167 27.8532 29.8003 27.8532C29.9839 27.8532 30.16 27.7829 30.2899 27.6577C30.4197 27.5326 30.4927 27.3629 30.4927 27.1859C30.4927 27.009 30.4197 26.8392 30.2899 26.7141C30.16 26.589 29.9839 26.5187 29.8003 26.5187ZM29.6341 28.6406C29.0848 28.685 27.5847 29.8372 27.5847 29.8372C27.4924 29.9039 27.5201 29.8995 27.5939 30.024C27.6678 30.1441 27.6586 30.153 27.7463 30.0952C27.8386 30.0374 27.9909 29.9439 28.2448 29.7927C29.2233 29.1877 28.4017 30.5845 27.9817 32.9377C27.8155 34.1032 28.9048 33.5027 29.1864 33.3247C29.4633 33.1512 30.2065 32.6575 30.2803 32.6085C30.3819 32.5418 30.308 32.4884 30.2296 32.3772C30.1742 32.3016 30.1188 32.355 30.1188 32.355C29.8188 32.5463 29.2695 32.9466 29.1956 32.6931C29.1079 32.4395 29.671 30.7002 29.9803 29.5035C30.0311 29.2188 30.1696 28.5961 29.6341 28.6406V28.6406Z" fill="#413488"/>
<path fill-rule="evenodd" clip-rule="evenodd" d="M29.3057 23.1158C25.4603 23.1158 22.343 26.2331 22.343 30.0784C22.343 33.9238 25.4603 37.0411 29.3057 37.0411C33.1511 37.0411 36.2684 33.9238 36.2684 30.0784C36.2684 26.2331 33.1511 23.1158 29.3057 23.1158ZM20.843 30.0784C20.843 25.4046 24.6319 21.6158 29.3057 21.6158C33.9795 21.6158 37.7684 25.4046 37.7684 30.0784C37.7684 34.7523 33.9795 38.5411 29.3057 38.5411C24.6319 38.5411 20.843 34.7523 20.843 30.0784Z" fill="#413488"/>
<path fill-rule="evenodd" clip-rule="evenodd" d="M47.6976 11.25C46.1459 11.25 44.8879 12.5079 44.8879 14.0597C44.8879 15.6115 46.1459 16.8694 47.6976 16.8694C49.2494 16.8694 50.5073 15.6115 50.5073 14.0597C50.5073 12.5079 49.2494 11.25 47.6976 11.25ZM43.3879 14.0597C43.3879 11.6795 45.3175 9.75 47.6976 9.75C50.0778 9.75 52.0073 11.6795 52.0073 14.0597C52.0073 16.4399 50.0778 18.3694 47.6976 18.3694C45.3175 18.3694 43.3879 16.4399 43.3879 14.0597Z" fill="#FFB800"/>
<path fill-rule="evenodd" clip-rule="evenodd" d="M42.9517 42.694C41.0723 42.694 39.5487 44.2176 39.5487 46.097C39.5487 47.9764 41.0723 49.5 42.9517 49.5C44.8311 49.5 46.3547 47.9764 46.3547 46.097C46.3547 44.2176 44.8311 42.694 42.9517 42.694ZM38.0487 46.097C38.0487 43.3892 40.2438 41.194 42.9517 41.194C45.6595 41.194 47.8547 43.3892 47.8547 46.097C47.8547 48.8048 45.6595 51 42.9517 51C40.2438 51 38.0487 48.8048 38.0487 46.097Z" fill="#FFB800"/>
<path fill-rule="evenodd" clip-rule="evenodd" d="M14.9541 27.453C15.0934 27.0629 15.5225 26.8596 15.9126 26.9989L20.0656 28.4822C20.4557 28.6215 20.659 29.0506 20.5197 29.4407C20.3803 29.8308 19.9512 30.0341 19.5611 29.8948L15.4081 28.4116C15.018 28.2722 14.8147 27.8431 14.9541 27.453Z" fill="#413488"/>
<path fill-rule="evenodd" clip-rule="evenodd" d="M23.3098 36.3708C23.6027 36.6637 23.6027 37.1385 23.3098 37.4314L17.6736 43.0676C17.3807 43.3605 16.9059 43.3605 16.613 43.0676C16.3201 42.7747 16.3201 42.2998 16.613 42.007L22.2492 36.3708C22.5421 36.0779 23.0169 36.0779 23.3098 36.3708Z" fill="#413488"/>
<path fill-rule="evenodd" clip-rule="evenodd" d="M34.1148 37.2608C34.4077 36.9679 34.8826 36.9679 35.1755 37.2608L39.0318 41.1171C39.3247 41.41 39.3247 41.8849 39.0318 42.1778C38.7389 42.4707 38.264 42.4707 37.9712 42.1778L34.1148 38.3214C33.8219 38.0286 33.8219 37.5537 34.1148 37.2608Z" fill="#413488"/>
<path fill-rule="evenodd" clip-rule="evenodd" d="M44.1094 17.1255C44.3821 17.4372 44.3506 17.9111 44.0388 18.1838L36.9194 24.4133C36.6077 24.6861 36.1339 24.6545 35.8611 24.3427C35.5884 24.031 35.6199 23.5572 35.9317 23.2844L43.0511 17.055C43.3628 16.7822 43.8366 16.8138 44.1094 17.1255Z" fill="#413488"/>
<path fill-rule="evenodd" clip-rule="evenodd" d="M13.8804 43.8806C12.6563 43.8806 11.6639 44.8729 11.6639 46.097C11.6639 47.3211 12.6563 48.3135 13.8804 48.3135C15.1045 48.3135 16.0968 47.3211 16.0968 46.097C16.0968 44.8729 15.1045 43.8806 13.8804 43.8806ZM10.1639 46.097C10.1639 44.0445 11.8278 42.3806 13.8804 42.3806C15.9329 42.3806 17.5968 44.0445 17.5968 46.097C17.5968 48.1496 15.9329 49.8135 13.8804 49.8135C11.8278 49.8135 10.1639 48.1496 10.1639 46.097Z" fill="#FFB800"/>
<path fill-rule="evenodd" clip-rule="evenodd" d="M11.5074 24.3022C10.611 24.3022 9.88428 25.0289 9.88428 25.9253C9.88428 26.8217 10.611 27.5484 11.5074 27.5484C12.4038 27.5484 13.1305 26.8217 13.1305 25.9253C13.1305 25.0289 12.4038 24.3022 11.5074 24.3022ZM8.38428 25.9253C8.38428 24.2005 9.78255 22.8022 11.5074 22.8022C13.2323 22.8022 14.6305 24.2005 14.6305 25.9253C14.6305 27.6502 13.2323 29.0484 11.5074 29.0484C9.78255 29.0484 8.38428 27.6502 8.38428 25.9253Z" fill="#FFB800"/>
</svg>
