<svg width="60" height="60" viewBox="0 0 60 60" fill="none" xmlns="http://www.w3.org/2000/svg">
<g clip-path="url(#clip0_112_1628)">
<path fill-rule="evenodd" clip-rule="evenodd" d="M4.14154 32.4243H11.9291V34.5202H15.3709C18.062 34.5202 20.5835 35.8605 22.7353 37.564C24.8974 39.2756 26.7728 41.4231 28.1824 43.1851C29.1304 44.3702 28.6927 45.7937 27.7549 46.5399C26.7853 47.3114 25.2858 47.4198 23.9728 46.3257L23.9648 46.319L19.0745 42.1272C18.76 41.8577 18.7236 41.3842 18.9932 41.0697C19.2627 40.7552 19.7362 40.7188 20.0507 40.9883L24.9369 45.1765C25.7183 45.8253 26.4252 45.681 26.821 45.3661C27.2493 45.0253 27.3355 44.5276 27.0111 44.1222C25.6262 42.3911 23.8339 40.3469 21.8042 38.74C19.7643 37.1251 17.5701 36.0202 15.3709 36.0202H11.9291V42.5543H13.275C14.4182 42.5543 15.4643 43.1318 16.5634 44.0935C17.6641 45.0566 18.9224 46.4995 20.4924 48.4184C20.7264 48.7044 20.9953 48.9951 21.4373 49.2747C21.8852 49.5581 22.5438 49.8503 23.5708 50.0831C25.6413 50.5524 29.1307 50.7637 35.2176 50.2419C35.8012 50.1919 36.3655 49.5437 36.3655 48.826C36.3655 48.5144 36.2522 48.228 35.9827 48.0052C35.7003 47.7718 35.1702 47.5475 34.2337 47.5475H30.7406C30.3264 47.5475 29.9906 47.2117 29.9906 46.7975C29.9906 46.3832 30.3264 46.0475 30.7406 46.0475H34.2337C35.3931 46.0475 36.3038 46.3246 36.9384 46.8491C37.5858 47.3842 37.8655 48.112 37.8655 48.826C37.8655 50.1592 36.8579 51.6068 35.3457 51.7365C29.2067 52.2627 25.5352 52.0664 23.2392 51.546C22.083 51.2839 21.2571 50.9357 20.6353 50.5423C20.0074 50.1451 19.6214 49.7227 19.3315 49.3683C17.7577 47.4447 16.5708 46.0931 15.5756 45.2224C14.5788 44.3502 13.8784 44.0543 13.275 44.0543H11.9291V46.4995H7.68603C7.27182 46.4995 6.93603 46.1637 6.93603 45.7495C6.93603 45.3353 7.27182 44.9995 7.68603 44.9995H10.4291V33.9243H5.64154V41.5578C5.64154 41.972 5.30575 42.3078 4.89154 42.3078C4.47733 42.3078 4.14154 41.972 4.14154 41.5578V32.4243Z" fill="#413488"/>
<path d="M5.58996 45.7498C5.58996 46.1356 5.27718 46.4484 4.89134 46.4484C4.5055 46.4484 4.19272 46.1356 4.19272 45.7498C4.19272 45.364 4.5055 45.0512 4.89134 45.0512C5.27718 45.0512 5.58996 45.364 5.58996 45.7498Z" fill="#413488"/>
<path fill-rule="evenodd" clip-rule="evenodd" d="M56.1935 27.5759H48.4058V25.48H44.9641C42.273 25.48 39.7515 24.1398 37.5997 22.4362C35.4376 20.7246 33.5622 18.5771 32.1526 16.8151C31.2045 15.6301 31.6423 14.2065 32.58 13.4604C33.5497 12.6888 35.0492 12.5804 36.3622 13.6745L36.3702 13.6812L41.2605 17.873C41.575 18.1426 41.6114 18.616 41.3418 18.9305C41.0723 19.245 40.5988 19.2814 40.2843 19.0119L35.3981 14.8237C34.6167 14.1749 33.9098 14.3192 33.514 14.6341C33.0857 14.9749 32.9995 15.4726 33.3239 15.878C34.7088 17.6092 36.5011 19.6534 38.5307 21.2602C40.5707 22.8751 42.7649 23.98 44.9641 23.98H48.4058V17.4459H47.06C45.9168 17.4459 44.8707 16.8684 43.7716 15.9067C42.6709 14.9436 41.4126 13.5007 39.8426 11.5818C39.6086 11.2958 39.3397 11.0051 38.8977 10.7255C38.4498 10.4421 37.7912 10.1499 36.7642 9.91712C34.6937 9.44783 31.2043 9.23655 25.1174 9.75828C24.5338 9.80831 23.9695 10.4565 23.9695 11.1743C23.9695 11.4858 24.0828 11.7722 24.3523 11.995C24.6347 12.2284 25.1648 12.4528 26.1013 12.4528H29.5944C30.0086 12.4528 30.3444 12.7885 30.3444 13.2028C30.3444 13.617 30.0086 13.9528 29.5944 13.9528H26.1013C24.9419 13.9528 24.0312 13.6756 23.3966 13.1512C22.7492 12.616 22.4695 11.8882 22.4695 11.1743C22.4695 9.84102 23.4771 8.39338 24.9893 8.26376C31.1283 7.73756 34.7998 7.93382 37.0957 8.45423C38.252 8.7163 39.0779 9.06451 39.6997 9.4579C40.3276 9.85511 40.7136 10.2775 41.0035 10.632C42.5773 12.5555 43.7642 13.9071 44.7594 14.7779C45.7562 15.65 46.4566 15.9459 47.06 15.9459H48.4058V13.5007H52.649C53.0632 13.5007 53.399 13.8365 53.399 14.2507C53.399 14.6649 53.0632 15.0007 52.649 15.0007H49.9058V26.0759H54.6935V18.4424C54.6935 18.0282 55.0292 17.6924 55.4435 17.6924C55.8577 17.6924 56.1935 18.0282 56.1935 18.4424V27.5759Z" fill="#413488"/>
<path d="M54.7442 14.2504C54.7442 13.8646 55.057 13.5518 55.4428 13.5518C55.8286 13.5518 56.1414 13.8646 56.1414 14.2504C56.1414 14.6363 55.8286 14.949 55.4428 14.949C55.057 14.949 54.7442 14.6363 54.7442 14.2504Z" fill="#413488"/>
<path fill-rule="evenodd" clip-rule="evenodd" d="M31.5998 22.783C31.5998 22.3506 31.2492 22 30.8168 22H29.1828C28.7503 22 28.3998 22.3506 28.3998 22.783V24.0556C28.3998 24.3977 28.1702 24.6949 27.8544 24.8261C27.5383 24.9574 27.1702 24.9074 26.9281 24.6653L26.0283 23.7655C25.7225 23.4597 25.2268 23.4597 24.921 23.7655L23.7655 24.9209C23.4598 25.2267 23.4598 25.7224 23.7655 26.0282L24.6657 26.9284C24.9077 27.1704 24.9578 27.5384 24.8266 27.8544C24.6954 28.1704 24.3982 28.4 24.0561 28.4H22.7832C22.3508 28.4 22.0002 28.7506 22.0002 29.183V30.817C22.0002 31.2495 22.3508 31.6 22.7832 31.6H24.056C24.3982 31.6 24.6954 31.8297 24.8266 32.1457C24.9579 32.4618 24.9079 32.8298 24.6658 33.0719L23.766 33.9717C23.4602 34.2775 23.4602 34.7733 23.766 35.079L24.9214 36.2345C25.2272 36.5403 25.7229 36.5403 26.0287 36.2345L26.9286 35.3346C27.1705 35.0926 27.5385 35.0426 27.8545 35.1739C28.1703 35.305 28.3998 35.6022 28.3998 35.9441V37.217C28.3998 37.6494 28.7503 38 29.1828 38H30.8168C31.2492 38 31.5998 37.6494 31.5998 37.217V35.9456C31.5998 35.6032 31.8296 35.3057 32.1459 35.1744C32.4622 35.0431 32.8305 35.0932 33.0727 35.3354L33.9719 36.2346C34.2777 36.5404 34.7735 36.5404 35.0792 36.2346L36.2347 35.0792C36.5405 34.7734 36.5405 34.2776 36.2347 33.9719L35.3358 33.073C35.0936 32.8307 35.0435 32.4624 35.1749 32.146C35.3062 31.8298 35.6036 31.6 35.946 31.6H37.2172C37.6497 31.6 38.0002 31.2495 38.0002 30.817V29.183C38.0002 28.7506 37.6497 28.4 37.2172 28.4H35.946C35.6037 28.4 35.3062 28.1703 35.175 27.8541C35.0436 27.5378 35.0937 27.1695 35.3359 26.9273L36.2351 26.0281C36.5409 25.7223 36.5409 25.2265 36.2351 24.9208L35.0797 23.7653C34.7739 23.4596 34.2781 23.4596 33.9724 23.7653L33.0731 24.6646C32.8309 24.9068 32.4625 24.9569 32.1461 24.8256C31.8297 24.6942 31.5998 24.3967 31.5998 24.0542V22.783ZM30.0009 33.9999C32.2101 33.9999 34.0009 32.2091 34.0009 29.9999C34.0009 27.7908 32.2101 25.9999 30.0009 25.9999C27.7918 25.9999 26.0009 27.7908 26.0009 29.9999C26.0009 32.2091 27.7918 33.9999 30.0009 33.9999Z" fill="#FFB800"/>
</g>
<defs>
<clipPath id="clip0_112_1628">
<rect width="60" height="60" fill="white"/>
</clipPath>
</defs>
</svg>
