<svg width="46" height="46" viewBox="0 0 46 46" fill="none" xmlns="http://www.w3.org/2000/svg">
<g clip-path="url(#clip0_112_1600)">
<path fill-rule="evenodd" clip-rule="evenodd" d="M10.7124 13.0471C10.7124 12.4258 11.2161 11.9221 11.8374 11.9221H34.6814C35.3027 11.9221 35.8064 12.4258 35.8064 13.0471V20.8374C35.8064 21.1481 35.5546 21.3999 35.2439 21.3999C34.9333 21.3999 34.6814 21.1481 34.6814 20.8374V13.0471L11.8374 13.0471V28.6278H23.2594C23.5701 28.6278 23.8219 28.8796 23.8219 29.1903C23.8219 29.5009 23.5701 29.7528 23.2594 29.7528H11.8374C11.2161 29.7528 10.7124 29.2491 10.7124 28.6278V13.0471Z" fill="#413488"/>
<path fill-rule="evenodd" clip-rule="evenodd" d="M31.5393 22.2265C31.8182 22.1092 32.1326 22.1092 32.4115 22.2265L38.0228 24.5862C38.4403 24.7617 38.7117 25.1704 38.7117 25.6232V30.7666C38.7117 30.7836 38.711 30.8006 38.7094 30.8176C38.6544 31.4223 38.5676 32.2318 38.175 33.1064C37.7791 33.9885 37.0887 34.9031 35.8764 35.768C34.7183 36.5941 33.2812 37.6456 32.6415 38.115C32.2449 38.4059 31.7059 38.4059 31.3093 38.115C30.6696 37.6456 29.2324 36.5941 28.0744 35.768C26.8621 34.9031 26.1717 33.9885 25.7758 33.1064C25.3832 32.2318 25.2964 31.4223 25.2414 30.8176C25.2398 30.8006 25.239 30.7836 25.239 30.7666V25.6232C25.239 25.1704 25.5105 24.7617 25.9279 24.5862L31.5393 22.2265ZM31.9754 23.2635L26.364 25.6232V30.7409C26.4172 31.3196 26.4951 31.9617 26.8021 32.6457C27.1103 33.3322 27.6655 34.0943 28.7277 34.8521C29.8924 35.683 31.3348 36.7383 31.9748 37.2079C31.9751 37.2081 31.9752 37.2082 31.9754 37.2082C31.9756 37.2082 31.9757 37.2081 31.976 37.2079C32.616 36.7383 34.0584 35.683 35.223 34.8521C36.2853 34.0943 36.8405 33.3322 37.1487 32.6457C37.4556 31.9617 37.5336 31.3196 37.5867 30.7409V25.6232L31.9754 23.2635ZM35.2978 27.1238C35.5174 27.3436 35.5172 27.6997 35.2973 27.9193L31.3981 31.8137C31.1785 32.033 30.8227 32.033 30.6031 31.8137L28.6534 29.8665C28.4336 29.6469 28.4334 29.2908 28.6529 29.071C28.8725 28.8512 29.2286 28.8509 29.4484 29.0705L31.0006 30.6207L34.5023 27.1233C34.7222 26.9037 35.0783 26.904 35.2978 27.1238Z" fill="#FFB800"/>
<path fill-rule="evenodd" clip-rule="evenodd" d="M11.6145 12.0362L23.2594 20.8581L34.9043 12.0362L35.5836 12.9329L23.9387 21.7548C23.537 22.0592 22.9818 22.0592 22.5801 21.7548L10.9352 12.9329L11.6145 12.0362Z" fill="#413488"/>
</g>
<defs>
<clipPath id="clip0_112_1600">
<rect width="45" height="45" fill="white" transform="translate(0.5 0.5)"/>
</clipPath>
</defs>
</svg>
