<svg width="44" height="44" viewBox="0 0 44 44" fill="none" xmlns="http://www.w3.org/2000/svg">
<path fill-rule="evenodd" clip-rule="evenodd" d="M28.6601 10.45C25.9787 10.45 23.6167 11.8191 22.2356 13.899L21.3192 13.2905C22.8955 10.9167 25.5947 9.35001 28.6601 9.35001C33.5236 9.35001 37.4662 13.2926 37.4662 18.1561C37.4662 21.2196 35.9014 23.9174 33.53 25.4941L32.9209 24.5781C34.9987 23.1966 36.3662 20.8359 36.3662 18.1561C36.3662 13.9001 32.9161 10.45 28.6601 10.45Z" fill="#413488"/>
<path fill-rule="evenodd" clip-rule="evenodd" d="M21.8958 33.046L9.7233 23.9082L9.06291 24.7879L21.5688 34.176C21.766 34.324 22.0376 34.3227 22.2334 34.1728L34.4957 24.7848L33.827 23.9114L21.8958 33.046Z" fill="#413488"/>
<path fill-rule="evenodd" clip-rule="evenodd" d="M14.898 10.45C17.5795 10.45 19.9414 11.8191 21.3226 13.899C21.4906 14.1521 21.832 14.221 22.085 14.053C22.3381 13.8849 22.407 13.5436 22.2389 13.2905C20.6626 10.9167 17.9634 9.35001 14.898 9.35001C10.0345 9.35001 6.09194 13.2926 6.09194 18.1561C6.09194 21.2196 7.65676 23.9174 10.0282 25.4941L10.6372 24.5781C8.55942 23.1966 7.19194 20.8359 7.19194 18.1561C7.19194 13.9001 10.6421 10.45 14.898 10.45Z" fill="#413488"/>
<path d="M23.1329 16.0799C22.8597 16.0799 22.5976 16.1846 22.4044 16.3708C22.2112 16.557 22.1027 16.8095 22.1027 17.0729C22.1027 17.3362 22.2112 17.5888 22.4044 17.775C22.5976 17.9612 22.8597 18.0658 23.1329 18.0658C23.4062 18.0658 23.6683 17.9612 23.8615 17.775C24.0547 17.5888 24.1632 17.3362 24.1632 17.0729C24.1632 16.8095 24.0547 16.557 23.8615 16.3708C23.6683 16.1846 23.4062 16.0799 23.1329 16.0799ZM22.8857 19.2375C22.0683 19.3036 19.836 21.0181 19.836 21.0181C19.6986 21.1174 19.7398 21.1108 19.8497 21.2961C19.9596 21.4749 19.9459 21.4881 20.0764 21.402C20.2138 21.316 20.4404 21.177 20.8182 20.9519C22.2744 20.0517 21.0518 22.1302 20.4267 25.6319C20.1794 27.3662 21.8004 26.4726 22.2194 26.2078C22.6315 25.9496 23.7374 25.2149 23.8473 25.1421C23.9984 25.0428 23.8885 24.9633 23.7717 24.7979C23.6893 24.6853 23.6069 24.7648 23.6069 24.7648C23.1604 25.0494 22.3431 25.6452 22.2332 25.2678C22.1027 24.8905 22.9406 22.3023 23.4008 20.5216C23.4764 20.098 23.6824 19.1713 22.8857 19.2375V19.2375Z" fill="#FFB800"/>
</svg>
