<svg width="44" height="44" viewBox="0 0 44 44" fill="none" xmlns="http://www.w3.org/2000/svg">
<path fill-rule="evenodd" clip-rule="evenodd" d="M19.5713 10.3841C20.2127 9.7239 21.0861 9.35001 22.0002 9.35001C22.9143 9.35001 23.7877 9.7239 24.4291 10.3841C25.0699 11.0437 25.4273 11.935 25.4273 12.8612V12.9899C26.2337 13.3235 26.986 13.7714 27.6637 14.3173C28.3632 14.8807 28.9832 15.5486 29.5013 16.303C30.0158 17.0522 30.418 17.8695 30.6997 18.7276C31.017 19.6942 31.1815 20.7129 31.1814 21.7447C31.1814 21.7448 31.1814 21.7447 31.1814 21.7447V26.4204C31.1813 26.7455 31.2435 27.0671 31.364 27.3666C31.4845 27.666 31.6607 27.9371 31.8818 28.1648C31.8818 28.1648 31.8818 28.1648 31.8818 28.1648L33.9029 30.245C34.0569 30.4035 34.1011 30.6388 34.015 30.8424C33.929 31.046 33.7294 31.1783 33.5084 31.1783H25.5369C25.2758 32.8947 23.8218 34.375 22.0002 34.375C20.1786 34.375 18.7246 32.8947 18.4635 31.1783H10.492C10.271 31.1783 10.0714 31.046 9.98537 30.8424C9.89932 30.6388 9.94349 30.4035 10.0975 30.245L12.1186 28.1648C12.5654 27.7049 12.819 27.0776 12.819 26.4219V21.7447C12.819 17.7868 15.1944 14.3881 18.5731 12.9899V12.8612C18.5731 11.935 18.9305 11.0437 19.5713 10.3841ZM19.5803 31.1783C19.83 32.3436 20.8459 33.275 22.0002 33.275C23.1545 33.275 24.1704 32.3436 24.4201 31.1783H19.5803ZM11.7932 30.0783L12.9076 28.9313C13.557 28.2629 13.919 27.3593 13.919 26.4219V21.7447C13.919 18.1079 16.1775 15.0236 19.3113 13.8829C19.5285 13.8038 19.6731 13.5973 19.6731 13.3661V12.8612C19.6731 12.2167 19.9221 11.6016 20.3603 11.1506C20.798 10.7001 21.3882 10.45 22.0002 10.45C22.6122 10.45 23.2024 10.7001 23.6401 11.1506C24.0783 11.6016 24.3273 12.2167 24.3273 12.8612V13.3661C24.3273 13.5973 24.4718 13.8038 24.6891 13.8829C25.5177 14.1846 26.2884 14.6219 26.9737 15.1739C27.5898 15.6702 28.1368 16.2592 28.5945 16.9257C29.0491 17.5877 29.405 18.3107 29.6545 19.0707C29.9356 19.9269 30.0815 20.8297 30.0814 21.7447V26.4204C30.0814 26.4203 30.0814 26.4204 30.0814 26.4204C30.0813 26.8855 30.1702 27.3465 30.3435 27.7771C30.5167 28.2078 30.7711 28.6001 31.0928 28.9313L32.2072 30.0783H11.7932Z" fill="#413488"/>
<path fill-rule="evenodd" clip-rule="evenodd" d="M29.4462 13.1891C29.6367 12.9525 29.9829 12.9152 30.2195 13.1058C30.919 13.6693 31.539 14.3372 32.0571 15.0915C32.5716 15.8407 32.9738 16.6581 33.2555 17.5161C33.3502 17.8047 33.1931 18.1155 32.9044 18.2102C32.6158 18.305 32.3051 18.1478 32.2103 17.8592C31.9609 17.0992 31.6049 16.3762 31.1503 15.7142C30.6926 15.0478 30.1456 14.4587 29.5295 13.9624C29.2929 13.7719 29.2556 13.4257 29.4462 13.1891Z" fill="#FFB800"/>
<path fill-rule="evenodd" clip-rule="evenodd" d="M31.2616 9.55622C31.4515 9.31911 31.7976 9.28081 32.0347 9.47067C33.331 10.5086 34.4804 11.7393 35.4412 13.13C36.3955 14.5113 37.1417 16.0186 37.6645 17.6016C37.7597 17.89 37.6031 18.2011 37.3147 18.2963C37.0262 18.3916 36.7152 18.235 36.62 17.9465C36.1297 16.462 35.4302 15.0493 34.5362 13.7553C33.6361 12.4525 32.56 11.3004 31.3472 10.3293C31.1101 10.1395 31.0718 9.79334 31.2616 9.55622Z" fill="#FFB800"/>
<path fill-rule="evenodd" clip-rule="evenodd" d="M14.5543 13.1891C14.3637 12.9525 14.0175 12.9152 13.7809 13.1058C13.0814 13.6693 12.4614 14.3372 11.9434 15.0915C11.4288 15.8407 11.0266 16.6581 10.745 17.5161C10.6502 17.8047 10.8074 18.1155 11.096 18.2102C11.3846 18.305 11.6953 18.1478 11.7901 17.8592C12.0396 17.0992 12.3955 16.3762 12.8501 15.7142C13.3078 15.0478 13.8548 14.4587 14.471 13.9624C14.7075 13.7719 14.7448 13.4257 14.5543 13.1891Z" fill="#FFB800"/>
<path fill-rule="evenodd" clip-rule="evenodd" d="M12.7383 9.55622C12.5485 9.31911 12.2023 9.28081 11.9652 9.47067C10.6689 10.5086 9.51951 11.7393 8.55872 13.13C7.60443 14.5113 6.85822 16.0186 6.33546 17.6016C6.24021 17.89 6.39682 18.2011 6.68525 18.2963C6.97369 18.3916 7.28473 18.235 7.37998 17.9465C7.87021 16.462 8.56974 15.0493 9.46374 13.7553C10.3638 12.4525 11.44 11.3004 12.6528 10.3293C12.8899 10.1395 12.9282 9.79334 12.7383 9.55622Z" fill="#FFB800"/>
</svg>
